<svg width="101" height="106" viewBox="0 0 101 106" fill="none" xmlns="http://www.w3.org/2000/svg">
<path d="M66.1003 94.0441C65.3111 94.8721 64.2409 95.3372 63.125 95.3372C62.0091 95.3372 60.9389 94.8721 60.1497 94.0441L53.4753 87.0393C52.6864 86.211 52.2431 85.0878 52.2431 83.9167C52.2431 82.7455 52.6864 81.6223 53.4753 80.7941L76.983 56.1226C77.7722 55.2946 78.8424 54.8294 79.9583 54.8294C81.0742 54.8294 82.1444 55.2946 82.9336 56.1226L89.608 63.1274C90.397 63.9557 90.8402 65.0789 90.8402 66.25C90.8402 67.4211 90.397 68.5443 89.608 69.3726L66.1003 94.0441Z" stroke="#1392ED" stroke-width="5" stroke-linecap="round" stroke-linejoin="round"/>
<path d="M75.75 57.4167L69.9635 27.0565C69.8062 26.2305 69.427 25.469 68.8707 24.8617C68.3145 24.2544 67.6044 23.8268 66.8241 23.6292L13.614 8.957C12.913 8.77913 12.1802 8.7933 11.4859 8.99817C10.7916 9.20303 10.1592 9.59172 9.64923 10.1269C9.13928 10.6621 8.76893 11.3259 8.57373 12.0545C8.37852 12.7832 8.36502 13.5522 8.5345 14.2879L22.5146 70.1323C22.7029 70.9511 23.1103 71.6964 23.689 72.2802C24.2676 72.864 24.9932 73.2619 25.7803 73.4271L54.7083 79.5" stroke="#1392ED" stroke-width="5" stroke-linecap="round" stroke-linejoin="round"/>
<path d="M9.67917 10.1583L40.3411 42.3382" stroke="#1392ED" stroke-width="5" stroke-linecap="round" stroke-linejoin="round"/>
<path d="M46.2917 57.4167C50.9401 57.4167 54.7083 53.4618 54.7083 48.5833C54.7083 43.7048 50.9401 39.75 46.2917 39.75C41.6433 39.75 37.875 43.7048 37.875 48.5833C37.875 53.4618 41.6433 57.4167 46.2917 57.4167Z" stroke="#1392ED" stroke-width="5" stroke-linecap="round" stroke-linejoin="round"/>
</svg>
